<?xml version="1.0" encoding="UTF-8"?>
<svg version="1.1" xmlns="http://www.w3.org/2000/svg" width="900" height="540">
<path d="M0 0 C4.84904759 2.92072417 7.70906811 6.22147757 9.75 11.49609375 C10.35124704 14.28289573 10.17268259 16.52031686 9.91015625 19.3515625 C9.75881523 23.09855737 10.02792718 24.60212184 12.1796875 27.734375 C14.80573656 30.56615141 17.53531913 33.26534669 20.28515625 35.9765625 C21.79122395 37.74567627 23.27126452 39.53732284 24.72265625 41.3515625 C28.598266 46.15289721 32.56032041 50.87107795 36.56811523 55.56201172 C38.4483956 57.77017995 40.2387445 59.903027 41.7890625 62.359375 C43.1811855 64.21394662 43.1811855 64.21394662 45.5703125 64.25390625 C46.94509766 64.08568359 46.94509766 64.08568359 48.34765625 63.9140625 C49.4046875 63.7903125 50.46171875 63.6665625 51.55078125 63.5390625 C56.67241378 62.76760321 61.78339758 61.93278791 66.87719727 60.99389648 C77.24152318 59.13457285 85.92720727 60.08159342 95.03515625 65.6015625 C109.35995007 76.01040739 110.07110081 97.33698301 112.95703125 113.5703125 C113.28753227 115.41485097 113.61812087 117.25937376 113.9487915 119.10388184 C114.63520783 122.94206466 115.31680685 126.78106856 115.99560547 130.62060547 C116.85873123 135.4974034 117.73974323 140.37078594 118.62513351 145.24358368 C119.31231773 149.04274596 119.98689311 152.84407217 120.65818024 156.64607239 C120.97738899 158.44228823 121.30101149 160.23772643 121.62947845 162.03227234 C127.46338287 193.99809825 127.46338287 193.99809825 118.16015625 208.2265625 C111.05565622 215.02217122 103.45760208 217.92503891 93.90234375 219.53393555 C92.28149368 219.83218625 92.28149368 219.83218625 90.62789917 220.13646221 C88.33907936 220.55534262 86.04862393 220.96537242 83.75671387 221.36700058 C80.36274793 221.96293838 76.97458169 222.58456813 73.58691406 223.21524048 C66.53289604 224.52400035 59.47241562 225.79514955 52.41015625 227.05859375 C51.1414267 227.2856922 49.87269714 227.51279064 48.56552124 227.74677086 C43.2326262 228.70052552 37.89953918 229.65317082 32.56565857 230.60139942 C25.03566688 231.94013352 17.50761069 233.28883004 9.98181534 234.65096265 C3.96819318 235.73844267 -2.04823315 236.80964216 -8.06573486 237.87543297 C-10.59247332 238.32535337 -13.11834427 238.78017754 -15.64324951 239.24027443 C-54.1796778 246.25033288 -54.1796778 246.25033288 -64.71484375 238.9765625 C-75.36709808 231.28434959 -78.44494647 222.85486684 -80.62890625 210.15625 C-80.87675776 208.78820125 -81.12619574 207.42043911 -81.37710571 206.052948 C-81.90355598 203.16895982 -82.42015467 200.28345093 -82.92932129 197.3963623 C-83.69912215 193.04225964 -84.50354111 188.69505668 -85.31542969 184.34863281 C-86.53459467 177.80878298 -87.72787921 171.26468472 -88.90073776 164.71637344 C-89.56440628 161.01224721 -90.23394673 157.30940386 -90.91748047 153.60888672 C-98.78947113 110.93950773 -98.78947113 110.93950773 -91.484375 98.43359375 C-83.9038292 87.90784693 -73.12640916 85.31879253 -60.90234375 83.2890625 C-58.47889048 82.87008398 -56.05569959 82.44958411 -53.6328125 82.02734375 C-52.56828857 81.84856689 -51.50376465 81.66979004 -50.40698242 81.4855957 C-47.63018037 81.02304518 -47.63018037 81.02304518 -44.71484375 79.9765625 C-43.67522032 78.14698983 -43.67522032 78.14698983 -42.93725586 75.84326172 C-42.6236058 74.96499725 -42.30995575 74.08673279 -41.98680115 73.18185425 C-41.65857864 72.22465485 -41.33035614 71.26745544 -40.9921875 70.28125 C-40.64603897 69.30044464 -40.29989044 68.31963928 -39.94325256 67.30911255 C-38.83527489 64.16033393 -37.74393265 61.00605517 -36.65234375 57.8515625 C-35.91313792 55.74703428 -35.17291581 53.64286272 -34.43164062 51.5390625 C-28.61425131 38.79760641 -28.61425131 38.79760641 -27.56640625 25.90234375 C-27.94539063 25.26683594 -28.324375 24.63132812 -28.71484375 23.9765625 C-29.61000314 16.59670193 -29.31395404 10.90699419 -24.71484375 4.9765625 C-18.03273708 -1.70554417 -8.96067096 -3.37797956 0 0 Z M-18.58984375 11.6640625 C-20.25119935 15.07907124 -20.37988025 18.30059151 -19.71484375 21.9765625 C-17.64594723 25.37546392 -15.60204838 27.86593261 -11.71484375 28.9765625 C-7.24917915 28.8953686 -5.27846766 28.45441755 -1.83984375 25.5390625 C1.2633219 21.79700981 1.66571028 19.82862632 1.28515625 14.9765625 C-0.2082677 11.40893862 -1.38074365 10.17841464 -4.71484375 8.1640625 C-10.29770623 5.95417944 -14.23053936 7.74068855 -18.58984375 11.6640625 Z M0.66015625 34.4140625 C-5.93751932 37.46854193 -11.73713592 37.09797983 -18.71484375 35.9765625 C-22.46951882 44.72399526 -25.83358782 53.57288845 -29.02734375 62.5390625 C-29.48616306 63.80800241 -29.94514673 65.07688289 -30.40429688 66.34570312 C-30.83291016 67.54517578 -31.26152344 68.74464844 -31.703125 69.98046875 C-32.09024658 71.06142822 -32.47736816 72.1423877 -32.8762207 73.25610352 C-33.86213675 75.97991079 -33.86213675 75.97991079 -33.71484375 78.9765625 C-19.80535875 77.35068478 -6.05766052 74.81619459 7.72265625 72.3515625 C10.11127586 71.92678931 12.49994736 71.50230783 14.88867188 71.078125 C20.68810242 70.04763228 26.48688261 69.01354392 32.28515625 67.9765625 C32.28515625 64.54629142 31.9440929 64.22364421 29.7578125 61.7890625 C29.21705078 61.17796631 28.67628906 60.56687012 28.11914062 59.93725586 C27.53455078 59.29022705 26.94996094 58.64319824 26.34765625 57.9765625 C25.14983394 56.62476712 23.95322607 55.27189468 22.7578125 53.91796875 C22.16629395 53.25039551 21.57477539 52.58282227 20.96533203 51.89501953 C18.67668557 49.28179897 16.47641974 46.60957613 14.28515625 43.9140625 C13.58261719 43.05039063 12.88007813 42.18671875 12.15625 41.296875 C10.99668611 39.85891894 9.84204589 38.41695875 8.6953125 36.96875 C7.60007772 35.60367476 6.45007154 34.28267964 5.28515625 32.9765625 C3.07871668 32.81645763 3.07871668 32.81645763 0.66015625 34.4140625 Z M58.50048828 71.19213867 C57.11662855 71.43086283 55.73267395 71.66903757 54.34863281 71.90670776 C50.60769769 72.55113905 46.86835432 73.20437728 43.12938929 73.86013198 C40.78840072 74.27033168 38.44709819 74.67868852 36.10567856 75.08642006 C27.92318802 76.51146062 19.74204262 77.94396677 11.56201172 79.38305664 C3.95952523 80.72032535 -3.64576385 82.04070942 -11.25253952 83.35333842 C-17.80255761 84.48442653 -24.35037123 85.62771858 -30.89664185 86.78029615 C-34.79793756 87.46695324 -38.69993006 88.14871318 -42.60424423 88.81801414 C-46.27908606 89.44838376 -49.95093415 90.09400881 -53.62110901 90.75098801 C-55.59490964 91.10047251 -57.57142529 91.43451589 -59.54800415 91.76792908 C-69.68604408 93.60775072 -78.34191012 96.08045124 -84.55859375 104.71875 C-87.42344923 110.31296105 -87.94684769 115.02472668 -87.05053711 121.18774414 C-86.90470515 122.21659399 -86.90470515 122.21659399 -86.75592709 123.26622868 C-86.42964558 125.50675098 -86.07680729 127.74153879 -85.71484375 129.9765625 C-85.59312428 130.7306477 -85.4714048 131.48473289 -85.34599686 132.26166916 C-84.3980426 138.0498029 -83.37589922 143.82404074 -82.34375 149.59765625 C-82.01732928 151.43649971 -81.69107425 153.27537258 -81.36497498 155.11427307 C-80.68617508 158.93598712 -80.00418266 162.75711472 -79.32006836 166.57788086 C-78.44747009 171.45382263 -77.58489016 176.33147832 -76.72488499 181.20965481 C-76.05611177 184.99475316 -75.38109923 188.77871929 -74.70432854 192.5623951 C-74.38367053 194.36040528 -74.06513294 196.15879507 -73.74884224 197.95757866 C-73.30591595 200.47219362 -72.85432481 202.98511053 -72.40063477 205.49780273 C-72.27430161 206.22577057 -72.14796844 206.9537384 -72.01780701 207.70376587 C-70.30142952 217.0776554 -67.88500711 224.42318739 -60.71484375 230.9765625 C-51.79012336 236.99104798 -41.61379017 234.63199918 -31.70898438 232.85864258 C-30.31358834 232.61794427 -28.91800861 232.37830885 -27.52226257 232.13964844 C-23.7536938 231.4918563 -19.98803321 230.82845279 -16.22282219 230.16145539 C-12.26856475 229.46305551 -8.31215751 228.77702967 -4.3560791 228.08903503 C2.28617454 226.93180445 8.9265413 225.76419222 15.56591797 224.59057617 C23.22339781 223.23714684 30.88376753 221.90115775 38.54589033 220.57428628 C45.93905694 219.29348844 53.32983393 217.99936342 60.71968079 216.69956017 C63.85423934 216.14851569 66.9895744 215.60225272 70.12565613 215.05994606 C73.82452147 214.41976751 77.52114986 213.76792087 81.21642113 213.10732269 C83.20637643 212.75438811 85.19835424 212.41291598 87.19038391 212.07188416 C97.39270268 210.22841225 106.1063975 208.13904917 112.4375 199.3828125 C117.16140948 191.98594356 116.39501045 184.56851934 114.88574219 176.29101562 C114.72489639 175.35660141 114.5640506 174.42218719 114.39833069 173.4594574 C113.86684546 170.39011877 113.31863627 167.32404388 112.76953125 164.2578125 C112.39334978 162.11378678 112.01797574 159.96961925 111.64337158 157.82531738 C110.85698019 153.33875806 110.0626056 148.85371003 109.26220703 144.36962891 C108.23910578 138.63564518 107.23320192 132.898811 106.23293686 127.16080475 C105.45988637 122.73471466 104.67908253 118.31002033 103.89582062 113.88572693 C103.52220483 111.77148129 103.15065313 109.65686979 102.78124237 107.54188538 C102.26251761 104.58054225 101.73370474 101.62117257 101.20214844 98.66210938 C101.05240067 97.7964183 100.90265289 96.93072723 100.74836731 96.0388031 C99.13918861 87.20721297 96.76435138 78.48201956 89.41015625 72.7265625 C79.12892702 66.96907413 69.59951431 69.23830561 58.50048828 71.19213867 Z " fill="#7F8C8D" transform="translate(436.71484375,94.0234375)"/>
<path d="M0 0 C8.0242009 6.39297322 13.37715262 15.09491168 15.61328125 25.08203125 C16.48825254 37.46912481 16.22063503 48.60893951 8.453125 58.9609375 C3.37198753 64.7885526 -1.76945431 69.60074919 -8.88671875 72.76953125 C-9.80453125 73.18589844 -10.72234375 73.60226562 -11.66796875 74.03125 C-22.85355458 78.35441464 -35.59474839 76.76725494 -46.38671875 72.08203125 C-49.36480811 70.35970291 -51.85171963 68.39830257 -54.38671875 66.08203125 C-54.99 65.58058594 -55.59328125 65.07914062 -56.21484375 64.5625 C-63.41965136 58.12516102 -68.04285858 48.76981666 -68.625 39.140625 C-68.97680867 24.65521713 -66.4058921 14.14952291 -56.38671875 3.08203125 C-39.97740294 -10.99043364 -17.82984248 -11.97903137 0 0 Z M-50.38671875 10.08203125 C-46.37437932 14.37026829 -41.98695562 17.698835 -37.19921875 21.08203125 C-35.58975577 22.23164767 -33.98038341 23.38139097 -32.37109375 24.53125 C-31.54802734 25.11696777 -30.72496094 25.70268555 -29.87695312 26.30615234 C-25.88796031 29.15085173 -21.91938646 32.02365194 -17.94921875 34.89453125 C-17.2013208 35.43360107 -16.45342285 35.9726709 -15.68286133 36.52807617 C-12.4028564 38.8931036 -9.1292065 41.26476627 -5.8828125 43.67578125 C-4.89410156 44.40796875 -3.90539062 45.14015625 -2.88671875 45.89453125 C-2.05140625 46.51972656 -1.21609375 47.14492188 -0.35546875 47.7890625 C1.49933963 49.26501332 1.49933963 49.26501332 3.61328125 49.08203125 C6.08467079 44.03436561 7.13675432 39.87306619 7.05078125 34.20703125 C7.04320801 33.50449219 7.03563477 32.80195313 7.02783203 32.078125 C6.8430817 26.24163293 5.74512116 21.96574411 2.61328125 17.08203125 C2.20078125 16.38722656 1.78828125 15.69242188 1.36328125 14.9765625 C-3.25157822 7.98872132 -10.49200736 3.65131602 -18.38671875 1.08203125 C-31.06794969 -0.16435259 -40.35644867 2.23225467 -50.38671875 10.08203125 Z M-56.38671875 18.08203125 C-60.59601721 26.50062818 -61.13830401 36.58503494 -58.28515625 45.5390625 C-53.36927684 55.98859227 -46.91877427 61.62616161 -36.38671875 66.08203125 C-28.34138219 68.7638101 -19.56327018 67.51315321 -11.84375 64.37109375 C-8.12480056 62.4199756 -5.38423451 60.01293555 -2.38671875 57.08203125 C-12.61745168 48.80372827 -23.28398311 41.08319499 -34.06347656 33.54003906 C-39.71925445 29.57654117 -45.29407573 25.51128281 -50.83032227 21.38256836 C-53.36457262 19.10471227 -53.36457262 19.10471227 -56.38671875 18.08203125 Z " fill="#7F8C8D" transform="translate(477.38671875,211.91796875)"/>
<path d="M0 0 C3.96 0 7.92 0 12 0 C14.14622206 3.95812302 16.29199551 7.91648805 18.4375 11.875 C19.04916016 13.00292969 19.66082031 14.13085938 20.29101562 15.29296875 C21.1659668 16.90751953 21.1659668 16.90751953 22.05859375 18.5546875 C22.59798584 19.54968262 23.13737793 20.54467773 23.69311523 21.56982422 C24.48168022 23.03617502 25.25541697 24.51083395 26 26 C26 17.42 26 8.84 26 0 C29.63 0 33.26 0 37 0 C37 14.52 37 29.04 37 44 C25 44 25 44 22.35253906 41.796875 C21.82885742 40.79140625 21.30517578 39.7859375 20.765625 38.75 C20.17265625 37.6671875 19.5796875 36.584375 18.96875 35.46875 C18.4015625 34.3240625 17.834375 33.179375 17.25 32 C16.63640625 30.8553125 16.0228125 29.710625 15.390625 28.53125 C13.88556138 25.70925571 12.43710426 22.85720136 11 20 C11 27.92 11 35.84 11 44 C7.37 44 3.74 44 0 44 C0 29.48 0 14.96 0 0 Z " fill="#7F8C8D" transform="translate(170,392)"/>
<path d="M0 0 C3.63 0 7.26 0 11 0 C11.33 0.66 11.66 1.32 12 2 C12.99 1.34 13.98 0.68 15 0 C18.37128339 -0.48402399 21.62749995 -0.47468904 25 0 C27.625 2 27.625 2 29 4 C29.45375 3.34 29.9075 2.68 30.375 2 C33.85589634 -0.65211149 36.30291446 -0.56268322 40.5859375 -0.3984375 C43.95211196 0.15714469 45.72640291 1.50637738 48 4 C49.38308781 6.76617563 49.11210196 9.01018 49.09765625 12.1015625 C49.09443359 13.31328125 49.09121094 14.525 49.08789062 15.7734375 C49.07532227 17.67996094 49.07532227 17.67996094 49.0625 19.625 C49.05798828 20.90375 49.05347656 22.1825 49.04882812 23.5 C49.03701203 26.66671292 49.02053815 29.83333356 49 33 C45.7 33 42.4 33 39 33 C38.93941406 31.43507813 38.87882812 29.87015625 38.81640625 28.2578125 C38.73200934 26.21353181 38.64736092 24.16926148 38.5625 22.125 C38.52318359 21.09246094 38.48386719 20.05992187 38.44335938 18.99609375 C38.40146484 18.00996094 38.35957031 17.02382813 38.31640625 16.0078125 C38.27974854 15.09660645 38.24309082 14.18540039 38.20532227 13.24658203 C38.13422935 10.96516519 38.13422935 10.96516519 37 9 C34.52733235 9.34444881 34.52733235 9.34444881 32 10 C30.79729036 12.40541929 30.79683337 14.10366591 30.68359375 16.7890625 C30.64169922 17.73007812 30.59980469 18.67109375 30.55664062 19.640625 C30.51732422 20.62546875 30.47800781 21.6103125 30.4375 22.625 C30.39431641 23.61757813 30.35113281 24.61015625 30.30664062 25.6328125 C30.20039053 28.08837033 30.09967545 30.54416651 30 33 C26.7 33 23.4 33 20 33 C19.93941406 31.43507813 19.87882812 29.87015625 19.81640625 28.2578125 C19.73200934 26.21353181 19.64736092 24.16926148 19.5625 22.125 C19.52318359 21.09246094 19.48386719 20.05992187 19.44335938 18.99609375 C19.40146484 18.00996094 19.35957031 17.02382813 19.31640625 16.0078125 C19.27974854 15.09660645 19.24309082 14.18540039 19.20532227 13.24658203 C19.13422935 10.96516519 19.13422935 10.96516519 18 9 C14.70924004 9.37904208 14.70924004 9.37904208 12 11 C11.84285346 12.63256758 11.74914586 14.27135338 11.68359375 15.91015625 C11.64169922 16.89951172 11.59980469 17.88886719 11.55664062 18.90820312 C11.51732422 19.94912109 11.47800781 20.99003906 11.4375 22.0625 C11.39431641 23.10728516 11.35113281 24.15207031 11.30664062 25.22851562 C11.20018895 27.81883972 11.09955692 30.40940175 11 33 C7.37 33 3.74 33 0 33 C0 22.11 0 11.22 0 0 Z " fill="#7F8C8D" transform="translate(287,403)"/>
<path d="M0 0 C0.99 0 1.98 0 3 0 C6.66666667 0 10.33333333 0 14 0 C14.04973511 4.42910272 14.08587704 8.85805397 14.10986328 13.28735352 C14.11987124 14.79161413 14.1334818 16.29585553 14.15087891 17.80004883 C14.17535809 19.97221643 14.18653523 22.14412504 14.1953125 24.31640625 C14.21102295 26.27235718 14.21102295 26.27235718 14.22705078 28.26782227 C13.94437488 32.91434534 13.40863776 37.29605746 10.37890625 40.9609375 C9.77949219 41.42757812 9.18007813 41.89421875 8.5625 42.375 C7.96566406 42.85710937 7.36882812 43.33921875 6.75390625 43.8359375 C1.81649577 47.11288254 -4.32310223 46.32161608 -10 46 C-13.75 45 -13.75 45 -16 44 C-16 40.37 -16 36.74 -16 33 C-14.824375 33.495 -13.64875 33.99 -12.4375 34.5 C-8.4961289 35.97452004 -5.23674363 36.41536702 -1 36 C-0.01 35.34 0.98 34.68 2 34 C2 33.01 2 32.02 2 31 C1.34 31.33 0.68 31.66 0 32 C-4.92186834 32.53998915 -8.89412318 32.50267128 -13.4375 30.4375 C-17.67361205 26.40802756 -19.13978864 22.2528778 -19.375 16.5 C-19.13370619 10.58830156 -17.33796315 6.53376263 -13.4375 2.0625 C-9.38138241 -1.05602257 -4.85947999 -0.37637969 0 0 Z M-6.1875 9.5 C-8.41059599 12.56633929 -8.52759378 14.3903245 -8.3203125 18.09375 C-7.86058039 20.82971673 -7.14223357 22.22711704 -5 24 C-2.5 24.58333333 -2.5 24.58333333 0 24 C2.0922339 22.39444881 2.90047838 21.48684898 3.43359375 18.87890625 C3.47482569 13.83527461 3.47482569 13.83527461 1.1875 9.4375 C-1.83195985 7.45328352 -3.20636131 7.45579061 -6.1875 9.5 Z " fill="#7F8C8D" transform="translate(393,403)"/>
<path d="M0 0 C3.63 0 7.26 0 11 0 C11.33 4.95 11.66 9.9 12 15 C12.99 14.34 13.98 13.68 15 13 C19.95033941 12.26172332 25.29589582 11.86649191 29.5 14.9375 C33.67057962 20.04646004 35.3991883 25.07380501 34.875 31.6875 C34.04211718 36.77340149 32.38884521 40.48860963 28.875 44.3125 C24.9956302 46.58952141 21.48660945 47.24339653 17 47 C13.9375 45.5625 13.9375 45.5625 12 44 C11.67 44.66 11.34 45.32 11 46 C7.37 46 3.74 46 0 46 C0 30.82 0 15.64 0 0 Z M13.25 22.4375 C10.38870014 25.69620262 10.32754255 27.64599517 10.578125 31.87109375 C10.90046208 34.19952231 10.90046208 34.19952231 12.6875 36.5625 C15.50673193 38.31499552 16.74836447 38.73161799 20 38 C23.07228257 35.25985609 23.91600463 33.58796759 24.5 29.5 C23.91939254 25.43574775 23.01161807 23.7606499 20 21 C16.07364231 20.69116386 16.07364231 20.69116386 13.25 22.4375 Z " fill="#7F8C8D" transform="translate(645,390)"/>
<path d="M0 0 C1.79244141 0.01740234 1.79244141 0.01740234 3.62109375 0.03515625 C5.41740234 0.04869141 5.41740234 0.04869141 7.25 0.0625 C8.17683594 0.07410156 9.10367187 0.08570313 10.05859375 0.09765625 C12.05826238 5.87975281 14.05193354 11.66386856 16.04003906 17.44995117 C16.7174233 19.41861941 17.39645216 21.38672254 18.07714844 23.35424805 C19.05444827 26.18001223 20.02584414 29.00774604 20.99609375 31.8359375 C21.30232666 32.71727859 21.60855957 33.59861969 21.92407227 34.50666809 C22.34450806 35.73760445 22.34450806 35.73760445 22.7734375 36.9934082 C23.022146 37.71510696 23.27085449 38.43680573 23.52709961 39.18037415 C24.05859375 41.09765625 24.05859375 41.09765625 24.05859375 44.09765625 C20.42859375 44.09765625 16.79859375 44.09765625 13.05859375 44.09765625 C12.06859375 41.45765625 11.07859375 38.81765625 10.05859375 36.09765625 C3.12859375 35.60265625 3.12859375 35.60265625 -3.94140625 35.09765625 C-4.60140625 38.06765625 -5.26140625 41.03765625 -5.94140625 44.09765625 C-9.90140625 44.09765625 -13.86140625 44.09765625 -17.94140625 44.09765625 C-15.71791817 35.46084202 -12.98721527 27.07133579 -10.0703125 18.65087891 C-9.3062782 16.44339379 -8.54930969 14.23356891 -7.79296875 12.0234375 C-7.30900558 10.61834767 -6.82464574 9.21339438 -6.33984375 7.80859375 C-6.11380463 7.1483017 -5.8877655 6.48800964 -5.65487671 5.80770874 C-3.67721514 0.1220855 -3.67721514 0.1220855 0 0 Z M3.05859375 11.09765625 C1.13388058 16.43601164 -0.34032049 21.44745007 -0.94140625 27.09765625 C2.02859375 27.09765625 4.99859375 27.09765625 8.05859375 27.09765625 C6.73859375 21.81765625 5.41859375 16.53765625 4.05859375 11.09765625 C3.72859375 11.09765625 3.39859375 11.09765625 3.05859375 11.09765625 Z " fill="#7F8C8D" transform="translate(479.94140625,391.90234375)"/>
<path d="M0 0 C3.67042635 3.14607973 5.9163269 6.43102291 6.625 11.25 C7.05266071 16.80958922 6.37068986 21.39928125 3.625 26.25 C0.54894608 29.65383015 -2.70486621 31.9287413 -7.35546875 32.48828125 C-13.19017608 32.68449265 -17.65159419 31.82187572 -22.375 28.25 C-26.61770958 23.15874851 -27.00339156 18.6737749 -26.7578125 12.125 C-26.00737067 6.48902871 -23.88457874 3.44508317 -19.375 -0.125 C-12.86352822 -3.65204722 -6.56151337 -3.40226619 0 0 Z M-14.125 7.3125 C-16.05950395 10.31098112 -16.25667319 12.7001958 -16.375 16.25 C-15.74774304 19.08385735 -14.91576897 20.68205172 -13.375 23.25 C-10.95089864 24.56901591 -10.95089864 24.56901591 -8.375 24.25 C-6.3570846 22.73656345 -5.50030066 21.50060133 -4.375 19.25 C-3.96281185 15.1439719 -3.81069417 11.46771259 -5.5625 7.6875 C-7.32663275 6.05361332 -7.32663275 6.05361332 -9.875 5.8125 C-12.34953351 6.08929172 -12.34953351 6.08929172 -14.125 7.3125 Z " fill="#7F8C8D" transform="translate(239.375,404.75)"/>
<path d="M0 0 C3.06381504 2.68083816 4.70917463 4.87752388 6 8.75 C6.09267588 10.45632648 6.12998202 12.16616587 6.125 13.875 C6.12886719 15.20917969 6.12886719 15.20917969 6.1328125 16.5703125 C6 18.75 6 18.75 5 19.75 C2.14122091 19.98701239 -0.69883297 20.17219182 -3.5625 20.3125 C-4.36880859 20.35568359 -5.17511719 20.39886719 -6.00585938 20.44335938 C-8.00368805 20.54975262 -10.0018207 20.65040888 -12 20.75 C-8.10683546 23.37150265 -8.10683546 23.37150265 -3.4375 23.5 C-0.94916819 22.95709124 1.52917349 22.36770663 4 21.75 C4 24.72 4 27.69 4 30.75 C-2.61326758 32.95442253 -7.93356713 33.68552189 -14.6875 31.625 C-19.38077902 28.96842697 -22.25588922 25.98233234 -24 20.75 C-24.51248622 14.47204377 -24.66674511 9.11916248 -21 3.75 C-15.71777263 -2.3575754 -7.34538529 -3.0605772 0 0 Z M-11 6.75 C-12.8624438 9.15858714 -12.8624438 9.15858714 -14 11.75 C-10.7 11.75 -7.4 11.75 -4 11.75 C-4.57125354 8.00724788 -4.57125354 8.00724788 -6 6.75 C-8.41482413 6.24940084 -8.41482413 6.24940084 -11 6.75 Z " fill="#7F8C8D" transform="translate(725,404.25)"/>
<path d="M0 0 C3.06381504 2.68083816 4.70917463 4.87752388 6 8.75 C6.09267588 10.45632648 6.12998202 12.16616587 6.125 13.875 C6.12886719 15.20917969 6.12886719 15.20917969 6.1328125 16.5703125 C6 18.75 6 18.75 5 19.75 C2.14122091 19.98701239 -0.69883297 20.17219182 -3.5625 20.3125 C-4.36880859 20.35568359 -5.17511719 20.39886719 -6.00585938 20.44335938 C-8.00368805 20.54975262 -10.0018207 20.65040888 -12 20.75 C-8.10683546 23.37150265 -8.10683546 23.37150265 -3.4375 23.5 C-0.94916819 22.95709124 1.52917349 22.36770663 4 21.75 C4 24.72 4 27.69 4 30.75 C-2.61326758 32.95442253 -7.93356713 33.68552189 -14.6875 31.625 C-19.38077902 28.96842697 -22.25588922 25.98233234 -24 20.75 C-24.51248622 14.47204377 -24.66674511 9.11916248 -21 3.75 C-15.71777263 -2.3575754 -7.34538529 -3.0605772 0 0 Z M-11 6.75 C-12.8624438 9.15858714 -12.8624438 9.15858714 -14 11.75 C-10.7 11.75 -7.4 11.75 -4 11.75 C-4.57125354 8.00724788 -4.57125354 8.00724788 -6 6.75 C-8.41482413 6.24940084 -8.41482413 6.24940084 -11 6.75 Z " fill="#7F8C8D" transform="translate(436,404.25)"/>
<path d="M0 0 C4.65173784 4.77611585 4.42386495 9.29846228 4.3515625 15.76953125 C4.31804688 16.95933594 4.28453125 18.14914062 4.25 19.375 C4.23195313 20.58800781 4.21390625 21.80101562 4.1953125 23.05078125 C4.14832216 26.0346679 4.08263372 29.01692279 4 32 C0 32 -4 32 -8 32 C-9.051875 32.226875 -10.10375 32.45375 -11.1875 32.6875 C-15.96368434 33.07899052 -17.84257893 32.28250568 -22 30 C-24.46938219 26.29592671 -24.66289195 23.29621114 -24 19 C-21.99195687 15.30520065 -20.60134926 14.23827046 -16.6875 12.6875 C-13.0270222 12.00503804 -9.71390786 11.84841192 -6 12 C-6.66 10.68 -7.32 9.36 -8 8 C-13.21979128 7.8200072 -17.07262981 8.02905192 -22 10 C-22 6.7 -22 3.4 -22 0 C-14.33212268 -2.15238662 -7.61345763 -3.16030317 0 0 Z M-12.8125 20.5 C-13.204375 20.995 -13.59625 21.49 -14 22 C-13.01 23.485 -13.01 23.485 -12 25 C-10.35 24.67 -8.7 24.34 -7 24 C-6.67 22.35 -6.34 20.7 -6 19 C-9.71736641 18.65099442 -9.71736641 18.65099442 -12.8125 20.5 Z " fill="#7F8C8D" transform="translate(635,404)"/>
<path d="M0 0 C4.65173784 4.77611585 4.42386495 9.29846228 4.3515625 15.76953125 C4.31804688 16.95933594 4.28453125 18.14914062 4.25 19.375 C4.23195313 20.58800781 4.21390625 21.80101562 4.1953125 23.05078125 C4.14832216 26.0346679 4.08263372 29.01692279 4 32 C0 32 -4 32 -8 32 C-9.051875 32.226875 -10.10375 32.45375 -11.1875 32.6875 C-15.96368434 33.07899052 -17.84257893 32.28250568 -22 30 C-24.46938219 26.29592671 -24.66289195 23.29621114 -24 19 C-21.99195687 15.30520065 -20.60134926 14.23827046 -16.6875 12.6875 C-13.0270222 12.00503804 -9.71390786 11.84841192 -6 12 C-6.66 10.68 -7.32 9.36 -8 8 C-13.21979128 7.8200072 -17.07262981 8.02905192 -22 10 C-22 6.7 -22 3.4 -22 0 C-14.33212268 -2.15238662 -7.61345763 -3.16030317 0 0 Z M-12.8125 20.5 C-13.204375 20.995 -13.59625 21.49 -14 22 C-13.01 23.485 -13.01 23.485 -12 25 C-10.35 24.67 -8.7 24.34 -7 24 C-6.67 22.35 -6.34 20.7 -6 19 C-9.71736641 18.65099442 -9.71736641 18.65099442 -12.8125 20.5 Z " fill="#7F8C8D" transform="translate(566,404)"/>
<path d="M0 0 C4.65173784 4.77611585 4.42386495 9.29846228 4.3515625 15.76953125 C4.31804687 16.95933594 4.28453125 18.14914062 4.25 19.375 C4.23195313 20.58800781 4.21390625 21.80101562 4.1953125 23.05078125 C4.14832216 26.0346679 4.08263372 29.01692279 4 32 C0 32 -4 32 -8 32 C-9.051875 32.226875 -10.10375 32.45375 -11.1875 32.6875 C-15.96368434 33.07899052 -17.84257893 32.28250568 -22 30 C-24.46938219 26.29592671 -24.66289195 23.29621114 -24 19 C-21.99195687 15.30520065 -20.60134926 14.23827046 -16.6875 12.6875 C-13.0270222 12.00503804 -9.71390786 11.84841192 -6 12 C-6.66 10.68 -7.32 9.36 -8 8 C-13.21979128 7.8200072 -17.07262981 8.02905192 -22 10 C-22 6.7 -22 3.4 -22 0 C-14.33212268 -2.15238662 -7.61345763 -3.16030317 0 0 Z M-12.8125 20.5 C-13.204375 20.995 -13.59625 21.49 -14 22 C-13.01 23.485 -13.01 23.485 -12 25 C-10.35 24.67 -8.7 24.34 -7 24 C-6.67 22.35 -6.34 20.7 -6 19 C-9.71736641 18.65099442 -9.71736641 18.65099442 -12.8125 20.5 Z " fill="#7F8C8D" transform="translate(365,404)"/>
<path d="M0 0 C3.63 0 7.26 0 11 0 C12.98 6.6 14.96 13.2 17 20 C19.31 13.4 21.62 6.8 24 0 C27.63 0 31.26 0 35 0 C31.17027009 11.06979569 27.31333245 22.10734477 23 33 C19.37 33 15.74 33 12 33 C8.86675374 25.68909207 5.95100167 18.33243719 3.1875 10.875 C2.87353271 10.03348389 2.55956543 9.19196777 2.23608398 8.32495117 C1.94548096 7.53451416 1.65487793 6.74407715 1.35546875 5.9296875 C1.09403076 5.22054199 0.83259277 4.51139648 0.56323242 3.78076172 C0 2 0 2 0 0 Z " fill="#7F8C8D" transform="translate(505,403)"/>
<path d="M0 0 C3.63 0 7.26 0 11 0 C11 14.52 11 29.04 11 44 C7.37 44 3.74 44 0 44 C0 29.48 0 14.96 0 0 Z " fill="#7F8C8D" transform="translate(268,392)"/>
<path d="M0 0 C3.3 0 6.6 0 10 0 C10 15.18 10 30.36 10 46 C6.7 46 3.4 46 0 46 C0 30.82 0 15.64 0 0 Z " fill="#7F8C8D" transform="translate(685,390)"/>
<path d="M0 0 C3.3 0 6.6 0 10 0 C10 15.18 10 30.36 10 46 C6.7 46 3.4 46 0 46 C0 30.82 0 15.64 0 0 Z " fill="#7F8C8D" transform="translate(595,390)"/>
<path d="M0 0 C3.3 0 6.6 0 10 0 C10 10.89 10 21.78 10 33 C6.7 33 3.4 33 0 33 C0 22.11 0 11.22 0 0 Z " fill="#7F8C8D" transform="translate(577,403)"/>
<path d="M0 0 C1.9375 1.625 1.9375 1.625 3 4 C2.875 7.125 2.875 7.125 2 10 C-1 12 -1 12 -4.0625 11.8125 C-7 11 -7 11 -9 8 C-9.35384949 5.16920408 -9.3920891 3.63169911 -7.875 1.1875 C-5.09996189 -0.57002414 -3.21070255 -0.46822746 0 0 Z " fill="#7F8C8D" transform="translate(585,388)"/>
</svg>
